<svg width="833" height="444" viewBox="0 0 833 444" fill="none" xmlns="http://www.w3.org/2000/svg">
<g filter="url(#filter0_g_4387_1174)">
<path d="M88 91H738V525H88V91Z" fill="white"/>
<path d="M608.575 80.0454L607.096 78.0301L608.575 80.0454ZM735.167 119.325L734.182 117.027L735.167 119.325ZM721.991 150.875L723.38 148.796L721.991 150.875ZM721.717 182.425L723.095 184.511L721.717 182.425ZM724.125 213.975L722.839 216.119L724.125 213.975ZM751.603 340.175L749.64 341.723L751.603 340.175ZM731.575 371.725L730.483 369.476L731.575 371.725ZM736.345 434.825L733.993 435.673L736.345 434.825ZM734.841 531.747L733.026 530.028L734.841 531.747ZM701.975 524.983L704.085 523.642L701.975 524.983ZM638.875 507.329L637.109 505.559L638.875 507.329ZM481.125 546.648L479.971 544.431L481.125 546.648ZM354.925 524.961L352.788 523.664L354.925 524.961ZM134.075 525.797L131.757 524.86L134.075 525.797ZM94.4045 381.775L96.6625 380.702L94.4045 381.775ZM86.0023 350.225L83.5064 350.368L86.0023 350.225ZM97.0453 160.925L95.9455 163.17L97.0453 160.925ZM103.775 76.1301L105.49 77.9493C110.447 73.2763 115.087 71.3243 119.457 71.4869C123.85 71.6504 128.541 73.9705 133.542 79.0569L135.325 77.3041L137.108 75.5513C131.592 69.9417 125.766 66.7182 119.643 66.4904C113.497 66.2617 107.619 69.0706 102.06 74.3109L103.775 76.1301ZM135.325 77.3041L133.542 79.0569C144.305 90.0033 155.352 96.1882 166.68 97.0745L166.875 94.5821L167.07 92.0897C157.365 91.3305 147.378 85.9967 137.108 75.5513L135.325 77.3041ZM166.875 94.5821L166.68 97.0745C176.9 97.8741 187.149 100.478 197.435 104.912L198.425 102.616L199.415 100.32C188.667 95.6877 177.883 92.9357 167.07 92.0897L166.875 94.5821ZM198.425 102.616L197.435 104.912C203.335 107.455 209.318 107.423 215.209 104.823C221.002 102.266 226.57 97.2936 231.964 90.2076L229.975 88.6934L227.986 87.1791C222.863 93.9082 217.914 98.1637 213.191 100.248C208.566 102.289 204.032 102.311 199.415 100.32L198.425 102.616ZM229.975 88.6934L231.964 90.2076C242.351 76.5633 252.591 67.347 262.642 62.3249L261.525 60.0885L260.408 57.8521C249.425 63.3396 238.632 73.1932 227.986 87.1791L229.975 88.6934ZM261.525 60.0885L262.642 62.3249C264.86 61.2166 266.97 60.876 269.035 61.1911C271.126 61.5101 273.356 62.5305 275.732 64.4432C280.546 68.3173 285.608 75.5663 290.816 86.5523L293.075 85.4814L295.334 84.4104C290.026 73.213 284.571 65.1382 278.867 60.5481C275.986 58.2286 272.957 56.7317 269.79 56.2483C266.597 55.7611 263.448 56.333 260.408 57.8521L261.525 60.0885ZM293.075 85.4814L290.816 86.5523C293.497 92.2081 296.244 96.6986 299.09 99.9165C301.922 103.12 305.039 105.27 308.473 105.794C311.993 106.332 315.316 105.084 318.329 102.596C321.3 100.144 324.11 96.3837 326.812 91.5095L324.625 90.2975L322.438 89.0854C319.882 93.6975 317.434 96.8517 315.146 98.7408C312.9 100.595 310.966 101.117 309.227 100.852C307.402 100.573 305.261 99.348 302.835 96.6046C300.422 93.8752 297.911 89.8464 295.334 84.4104L293.075 85.4814ZM324.625 90.2975L326.812 91.5095C332.027 82.1011 336.849 77.5075 341.039 76.3999C344.838 75.3956 349.172 77.078 354.208 83.4998L356.175 81.9572L358.142 80.4147C352.661 73.4239 346.479 69.7901 339.761 71.5659C333.434 73.2384 327.74 79.5212 322.438 89.0854L324.625 90.2975ZM356.175 81.9572L354.208 83.4998C364.885 97.117 375.845 105.556 387.155 108.204L387.725 105.77L388.295 103.335C378.572 101.059 368.499 93.6225 358.142 80.4147L356.175 81.9572ZM387.725 105.77L387.155 108.204C398.775 110.924 410.12 106.559 421.009 96.0737L419.275 94.2728L417.541 92.472C407.397 102.24 397.709 105.54 388.295 103.335L387.725 105.77ZM419.275 94.2728L421.009 96.0737C425.933 91.3324 430.457 89.6818 434.691 90.2961C439.04 90.927 443.786 94.0382 448.871 100.41L450.825 98.8502L452.779 97.2909C447.347 90.4837 441.577 86.2428 435.409 85.3479C429.126 84.4364 423.134 87.0864 417.541 92.472L419.275 94.2728ZM450.825 98.8502L448.871 100.41C454.346 107.27 460.433 110.963 467.046 109.764C473.408 108.611 479.165 103.067 484.501 94.4462L482.375 93.1305L480.249 91.8148C475.068 100.186 470.308 104.091 466.154 104.844C462.25 105.552 457.821 103.609 452.779 97.2909L450.825 98.8502ZM482.375 93.1305L484.501 94.4462C489.669 86.0962 494.563 81.4131 499.046 79.6908C503.248 78.077 507.562 78.8968 512.309 82.919L513.925 81.0118L515.541 79.1045C509.771 74.2143 503.569 72.5975 497.254 75.0233C491.221 77.3406 485.598 83.1731 480.249 91.8148L482.375 93.1305ZM513.925 81.0118L512.309 82.919C523.201 92.1501 534.417 96.2038 545.844 94.4973L545.475 92.0247L545.106 89.5521C535.499 90.9868 525.682 87.6985 515.541 79.1045L513.925 81.0118ZM545.475 92.0247L545.844 94.4973C556.189 92.9524 566.53 92.5011 576.87 93.1423L577.025 90.647L577.18 88.1518C566.486 87.4888 555.794 87.9559 545.106 89.5521L545.475 92.0247ZM577.025 90.647L576.87 93.1423C588.1 93.8386 599.182 90.0418 610.054 82.0607L608.575 80.0454L607.096 78.0301C596.935 85.4888 586.983 88.7597 577.18 88.1518L577.025 90.647ZM608.575 80.0454L610.054 82.0607C612.399 80.3393 614.599 79.4849 616.671 79.3112C618.729 79.1387 620.861 79.6199 623.118 80.8984C627.745 83.5191 632.725 89.396 637.921 99.0962L640.125 97.9158L642.329 96.7353C637.008 86.8021 631.472 79.8839 625.582 76.5479C622.581 74.8479 619.454 74.0604 616.254 74.3287C613.068 74.5957 610.009 75.8916 607.096 78.0301L608.575 80.0454ZM640.125 97.9158L637.921 99.0962C643.214 108.978 648.887 115.505 655.193 117.364C661.938 119.352 668.156 115.767 673.643 108.757L671.675 107.216L669.706 105.675C664.678 112.098 660.378 113.68 656.607 112.568C652.396 111.327 647.552 106.487 642.329 96.7353L640.125 97.9158ZM671.675 107.216L673.643 108.757C683.926 95.6233 693.464 91.5619 702.48 94.3752L703.225 91.9887L703.97 89.6022C691.953 85.8527 680.457 91.943 669.706 105.675L671.675 107.216ZM703.225 91.9887L702.48 94.3752C713.198 97.7192 727.445 100.489 745.164 102.711L745.475 100.23L745.786 97.7498C728.206 95.5455 714.286 92.821 703.97 89.6022L703.225 91.9887ZM745.475 100.23L745.164 102.711C749.537 103.259 752.174 104.028 753.468 104.809C754.085 105.182 754.106 105.384 754.073 105.286C754.014 105.115 754.134 105.111 753.936 105.476C753.428 106.417 751.795 107.973 748.313 110.076C744.959 112.101 740.264 114.419 734.182 117.027L735.167 119.325L736.153 121.623C742.332 118.973 747.263 116.551 750.898 114.356C754.405 112.238 757.126 110.093 758.336 107.851C758.998 106.626 759.317 105.16 758.8 103.657C758.307 102.227 757.211 101.228 756.051 100.528C753.791 99.1644 750.239 98.3081 745.786 97.7498L745.475 100.23ZM735.167 119.325L734.182 117.027C727.955 119.698 722.899 122.412 719.08 125.191C715.287 127.949 712.523 130.909 711.175 134.137C709.77 137.5 710.006 140.918 711.762 144.174C713.455 147.313 716.507 150.217 720.602 152.954L721.991 150.875L723.38 148.796C719.607 146.275 717.306 143.92 716.163 141.801C715.082 139.798 714.997 137.958 715.789 136.063C716.637 134.033 718.585 131.734 722.021 129.234C725.43 126.754 730.119 124.21 736.153 121.623L735.167 119.325ZM721.991 150.875L720.602 152.954C728.319 158.11 731.261 162.708 731.226 166.628C731.192 170.563 728.154 175.177 720.339 180.339L721.717 182.425L723.095 184.511C731.201 179.156 736.169 173.254 736.226 166.672C736.284 160.075 731.402 154.156 723.38 148.796L721.991 150.875ZM721.717 182.425L720.339 180.339C712.237 185.691 707.373 191.675 707.886 198.39C708.388 204.969 713.987 210.807 722.839 216.119L724.125 213.975L725.411 211.831C716.736 206.626 713.172 201.947 712.871 198.01C712.581 194.208 715.276 189.676 723.095 184.511L721.717 182.425ZM724.125 213.975L722.839 216.119C740.235 226.557 753.343 236.917 762.274 247.167L764.159 245.525L766.044 243.883C756.649 233.1 743.068 222.426 725.411 211.831L724.125 213.975ZM764.159 245.525L762.274 247.167C771.082 257.276 774.04 267.003 771.872 276.52L774.31 277.075L776.747 277.63C779.371 266.113 775.562 254.807 766.044 243.883L764.159 245.525ZM774.31 277.075L771.872 276.52C769.614 286.434 763.477 296.552 753.169 306.857L754.937 308.625L756.705 310.393C767.436 299.665 774.214 288.749 776.747 277.63L774.31 277.075ZM754.937 308.625L753.169 306.857C747.667 312.358 744.364 318.118 743.728 324.137C743.086 330.206 745.201 336.096 749.64 341.723L751.603 340.175L753.566 338.627C749.709 333.737 748.23 329.111 748.7 324.663C749.175 320.166 751.688 315.408 756.705 310.393L754.937 308.625ZM751.603 340.175L749.64 341.723C751.49 344.068 752.37 346.238 752.526 348.255C752.68 350.253 752.142 352.352 750.708 354.61C747.759 359.256 741.214 364.263 730.483 369.476L731.575 371.725L732.667 373.974C743.585 368.67 751.202 363.161 754.929 357.29C756.834 354.29 757.762 351.131 757.511 347.87C757.261 344.628 755.865 341.54 753.566 338.627L751.603 340.175ZM731.575 371.725L730.483 369.476C719.586 374.77 712.136 380.32 708.955 386.331C707.312 389.436 706.801 392.682 707.573 395.961C708.332 399.182 710.273 402.204 713.113 405.043L714.88 403.275L716.648 401.507C714.228 399.087 712.92 396.851 712.44 394.814C711.974 392.835 712.235 390.822 713.375 388.669C715.759 384.164 721.915 379.197 732.667 373.974L731.575 371.725ZM714.88 403.275L713.113 405.043C723.454 415.381 730.361 425.597 733.993 435.673L736.345 434.825L738.697 433.977C734.747 423.02 727.345 412.202 716.648 401.507L714.88 403.275ZM736.345 434.825L733.993 435.673C737.886 446.474 743.975 457.217 752.213 467.901L754.193 466.375L756.173 464.849C748.194 454.5 742.385 444.209 738.697 433.977L736.345 434.825ZM754.193 466.375L752.213 467.901C756.073 472.908 758.295 477.784 759.041 482.537C759.784 487.269 759.088 492.033 756.869 496.886L759.143 497.925L761.417 498.964C764.006 493.3 764.889 487.547 763.981 481.762C763.076 475.999 760.42 470.358 756.173 464.849L754.193 466.375ZM759.143 497.925L756.869 496.886C752.214 507.069 744.305 518.118 733.026 530.028L734.841 531.747L736.656 533.466C748.164 521.314 756.457 509.814 761.417 498.964L759.143 497.925ZM734.841 531.747L733.026 530.028C727.615 535.742 722.851 537.51 718.583 536.631C714.121 535.713 709.234 531.74 704.085 523.642L701.975 524.983L699.865 526.324C705.233 534.767 711.082 540.192 717.575 541.529C724.262 542.905 730.673 539.784 736.656 533.466L734.841 531.747ZM701.975 524.983L704.085 523.642C693.474 506.953 682.524 496.58 671.081 493.467L670.425 495.879L669.769 498.292C679.36 500.901 689.442 509.93 699.865 526.324L701.975 524.983ZM670.425 495.879L671.081 493.467C659.396 490.288 648 494.692 637.109 505.559L638.875 507.329L640.641 509.098C650.784 498.977 660.421 495.748 669.769 498.292L670.425 495.879ZM638.875 507.329L637.109 505.559C632.121 510.537 627.45 512.737 623.073 512.784C618.703 512.831 614.047 510.737 609.072 505.878L607.325 507.667L605.578 509.456C611.119 514.866 616.98 517.849 623.127 517.784C629.267 517.718 635.113 514.615 640.641 509.098L638.875 507.329ZM607.325 507.667L609.072 505.878C603.529 500.467 597.663 497.493 591.511 497.59C585.368 497.687 579.524 500.835 574 506.403L575.775 508.163L577.55 509.924C582.542 504.892 587.215 502.658 591.589 502.589C595.953 502.521 600.604 504.599 605.578 509.456L607.325 507.667ZM575.775 508.163L574 506.403C568.937 511.505 564.033 514.626 559.305 515.993C554.629 517.346 549.964 517.034 545.211 514.994L544.225 517.291L543.239 519.589C549.003 522.063 554.854 522.486 560.695 520.797C566.484 519.122 572.096 515.421 577.55 509.924L575.775 508.163ZM544.225 517.291L545.211 514.994C539.498 512.542 533.701 511.942 527.895 513.265C522.123 514.58 516.499 517.757 511.018 522.606L512.675 524.478L514.332 526.351C519.368 521.894 524.261 519.221 529.005 518.14C533.715 517.067 538.435 517.527 543.239 519.589L544.225 517.291ZM512.675 524.478L511.018 522.606C500.627 531.801 490.277 539.066 479.971 544.431L481.125 546.648L482.279 548.866C493.007 543.282 503.689 535.767 514.332 526.351L512.675 524.478ZM481.125 546.648L479.971 544.431C475.423 546.798 471.016 546.824 466.481 544.523C461.789 542.143 456.824 537.192 451.67 529.279L449.575 530.643L447.48 532.008C452.842 540.239 458.395 546.028 464.219 548.982C470.201 552.017 476.31 551.973 482.279 548.866L481.125 546.648ZM449.575 530.643L451.67 529.279C446.308 521.047 440.662 515.542 434.609 513.472C428.305 511.316 422.146 513.062 416.405 517.948L418.025 519.852L419.645 521.756C424.421 517.691 428.778 516.762 432.991 518.203C437.455 519.729 442.326 524.095 447.48 532.008L449.575 530.643ZM418.025 519.852L416.405 517.948C411.506 522.117 406.917 523.668 402.543 523.152C398.101 522.629 393.353 519.915 388.315 514.44L386.475 516.133L384.635 517.826C390.114 523.78 395.882 527.402 401.957 528.118C408.1 528.842 414.027 526.537 419.645 521.756L418.025 519.852ZM386.475 516.133L388.315 514.44C382.725 508.366 376.556 505.533 370.026 507.36C363.812 509.099 358.125 514.877 352.788 523.664L354.925 524.961L357.062 526.259C362.242 517.73 367.071 513.38 371.374 512.176C375.361 511.06 379.708 512.471 384.635 517.826L386.475 516.133ZM354.925 524.961L352.788 523.664C342.326 540.89 332.426 548.659 323.291 548.966L323.375 551.465L323.459 553.963C335.357 553.563 346.491 543.664 357.062 526.259L354.925 524.961ZM323.375 551.465L323.291 548.966C313.027 549.311 302.754 548.125 292.465 545.401L291.825 547.818L291.185 550.234C301.93 553.08 312.69 554.325 323.459 553.963L323.375 551.465ZM291.825 547.818L292.465 545.401C282.377 542.73 272.179 537.178 261.872 528.622L260.275 530.546L258.678 532.47C269.405 541.373 280.24 547.336 291.185 550.234L291.825 547.818ZM260.275 530.546L261.872 528.622C251.305 519.851 240.733 511.775 230.156 504.394L228.725 506.444L227.294 508.495C237.75 515.79 248.212 523.782 258.678 532.47L260.275 530.546ZM228.725 506.444L230.156 504.394C219.418 496.901 208.598 491.945 197.7 489.603L197.175 492.047L196.65 494.491C206.785 496.669 216.999 501.311 227.294 508.495L228.725 506.444ZM197.175 492.047L197.7 489.603C187.063 487.317 176.421 485.853 165.775 485.213L165.625 487.709L165.475 490.204C175.863 490.829 186.254 492.257 196.65 494.491L197.175 492.047ZM165.625 487.709L165.775 485.213C159.352 484.827 153.398 488.554 147.925 495.162C142.427 501.798 137.054 511.752 131.757 524.86L134.075 525.797L136.393 526.733C141.613 513.817 146.756 504.41 151.775 498.351C156.819 492.262 161.381 489.958 165.475 490.204L165.625 487.709ZM134.075 525.797L131.757 524.86C126.557 537.729 120.778 544.984 114.773 547.654C109.05 550.199 102.283 548.895 94.0367 542.335L92.4803 544.292L90.9238 546.248C99.8912 553.382 108.663 555.843 116.805 552.223C124.664 548.728 131.077 539.888 136.393 526.733L134.075 525.797ZM92.4803 544.292L94.0367 542.335C76.8985 528.7 66.6453 516.934 62.7237 507.053L60.4 507.975L58.0763 508.897C62.5021 520.049 73.6357 532.494 90.9238 546.248L92.4803 544.292ZM60.4 507.975L62.7237 507.053C60.8322 502.287 60.5767 497.592 61.9131 492.883C63.2616 488.13 66.2745 483.219 71.1524 478.16L69.3529 476.425L67.5534 474.69C62.2891 480.148 58.7387 485.753 57.103 491.518C55.4551 497.325 55.7942 503.147 58.0763 508.897L60.4 507.975ZM69.3529 476.425L71.1524 478.16C76.5259 472.589 79.2982 466.651 78.731 460.423C78.1699 454.261 74.3926 448.459 68.123 442.991L66.4797 444.875L64.8365 446.759C70.6246 451.807 73.355 456.522 73.7516 460.877C74.1422 465.165 72.3222 469.745 67.5534 474.69L69.3529 476.425ZM66.4797 444.875L68.123 442.991C62.4343 438.029 60.9352 433.689 62.014 429.762C63.186 425.496 67.6128 420.67 76.4168 415.479L75.147 413.325L73.8772 411.172C64.8454 416.497 58.9096 422.188 57.1926 428.438C55.3822 435.028 58.4674 441.204 64.8365 446.759L66.4797 444.875ZM75.147 413.325L76.4168 415.479C85.477 410.136 91.9498 404.623 95.4722 398.853C99.0908 392.924 99.5479 386.774 96.6625 380.702L94.4045 381.775L92.1465 382.848C94.2586 387.293 94.005 391.659 91.2044 396.248C88.3077 400.993 82.653 405.997 73.8772 411.172L75.147 413.325ZM94.4045 381.775L96.6625 380.702C91.7888 370.446 89.0817 360.244 88.4982 350.082L86.0023 350.225L83.5064 350.368C84.1306 361.24 87.0249 372.071 92.1465 382.848L94.4045 381.775ZM86.0023 350.225L88.4982 350.082C87.9666 340.824 93.7556 331.011 107.373 320.666L105.86 318.675L104.348 316.684C90.2799 327.372 82.8302 338.592 83.5064 350.368L86.0023 350.225ZM105.86 318.675L107.373 320.666C114.481 315.266 119.324 309.653 121.492 303.764C123.709 297.743 123.025 291.711 119.638 285.871L117.476 287.125L115.313 288.379C118.025 293.056 118.455 297.541 116.8 302.036C115.096 306.664 111.082 311.568 104.348 316.684L105.86 318.675ZM117.476 287.125L119.638 285.871C113.219 274.801 100.742 264.016 82.6246 253.417L81.3622 255.575L80.0998 257.733C97.9363 268.168 109.535 278.416 115.313 288.379L117.476 287.125ZM81.3622 255.575L82.6246 253.417C73.7773 248.241 67.952 243.221 64.8313 238.435C61.7943 233.777 61.3209 229.375 63.1087 224.964L60.7918 224.025L58.4749 223.086C55.9997 229.192 56.8231 235.307 60.6429 241.165C64.379 246.896 70.9705 252.392 80.0998 257.733L81.3622 255.575ZM60.7918 224.025L63.1087 224.964C67.0044 215.354 78.7277 205.187 99.3505 194.704L98.2176 192.475L97.0847 190.246C76.3327 200.796 63.1054 211.663 58.4749 223.086L60.7918 224.025ZM98.2176 192.475L99.3505 194.704C104.642 192.013 108.77 189.235 111.58 186.324C114.401 183.4 116.07 180.145 115.938 176.607C115.808 173.093 113.922 169.891 110.928 167.011C107.933 164.129 103.627 161.365 98.145 158.68L97.0453 160.925L95.9455 163.17C101.198 165.743 104.991 168.237 107.461 170.614C109.933 172.992 110.877 175.049 110.942 176.793C111.006 178.513 110.235 180.517 107.982 182.852C105.717 185.198 102.137 187.678 97.0847 190.246L98.2176 192.475ZM97.0453 160.925L98.145 158.68C92.8852 156.103 88.8476 153.58 85.9585 151.131C83.0557 148.67 81.4594 146.41 80.8179 144.392C79.6673 140.774 81.2983 136.509 88.4622 131.412L87.0129 129.375L85.5635 127.338C77.9468 132.757 73.8595 139.01 76.053 145.908C77.0836 149.149 79.4249 152.147 82.7254 154.945C86.0396 157.754 90.4709 160.488 95.9455 163.17L97.0453 160.925ZM87.0129 129.375L88.4622 131.412C103.291 120.861 113.417 111.605 118.486 103.642L116.377 102.3L114.267 100.958C109.746 108.061 100.296 116.856 85.5635 127.338L87.0129 129.375ZM116.377 102.3L118.486 103.642C119.784 101.602 120.678 99.5809 120.896 97.6343C121.126 95.5775 120.586 93.649 119.149 92.1153C117.802 90.6781 115.871 89.8069 113.71 89.278C111.522 88.7422 108.86 88.5 105.785 88.5V91V93.5C108.637 93.5 110.863 93.7286 112.521 94.1346C114.207 94.5473 115.083 95.0886 115.501 95.5347C115.829 95.8843 116.013 96.3101 115.927 97.0783C115.829 97.9567 115.366 99.2311 114.267 100.958L116.377 102.3ZM105.785 91V88.5C102.933 88.5 101.04 88.1932 99.9096 87.746C98.8522 87.3276 98.8724 86.985 98.8674 86.9477C98.8242 86.6281 98.9373 85.7256 100.069 84.016C101.15 82.3847 102.926 80.3664 105.49 77.9493L103.775 76.1301L102.06 74.3109C99.3661 76.8505 97.282 79.1692 95.9006 81.2554C94.571 83.2632 93.6207 85.4586 93.9124 87.6173C94.2423 90.0583 95.9957 91.5745 98.0699 92.3953C100.071 93.1872 102.708 93.5 105.785 93.5V91Z" fill="url(#paint0_linear_4387_1174)"/>
</g>
<defs>
<filter id="filter0_g_4387_1174" x="0.775196" y="0.778126" width="832.081" height="608.545" filterUnits="userSpaceOnUse" color-interpolation-filters="sRGB">
<feFlood flood-opacity="0" result="BackgroundImageFix"/>
<feBlend mode="normal" in="SourceGraphic" in2="BackgroundImageFix" result="shape"/>
<feTurbulence type="fractalNoise" baseFrequency="0.032679736614227295 0.032679736614227295" numOctaves="3" seed="6029" />
<feDisplacementMap in="shape" scale="110.59999847412109" xChannelSelector="R" yChannelSelector="G" result="displacedImage" width="100%" height="100%" />
<feMerge result="effect1_texture_4387_1174">
<feMergeNode in="displacedImage"/>
</feMerge>
</filter>
<linearGradient id="paint0_linear_4387_1174" x1="413" y1="91" x2="413.982" y2="461.959" gradientUnits="userSpaceOnUse">
<stop stop-color="#FBCB04"/>
<stop offset="1" stop-color="#2EE1FF"/>
</linearGradient>
</defs>
</svg>
